<svg id="Logo" xmlns="http://www.w3.org/2000/svg" viewBox="0 0 172 172"><defs><clipPath id="clip-path" transform="translate(-164 -164)"><path class="cls-1" d="m226.69 270.11 57.17 28.95 15.55-50.56-72.72 21.61z"/></clipPath><clipPath id="clip-path-2" transform="translate(-164 -164)"><path class="cls-1" d="M259.24 255.11h41.32v41.32h-41.32z"/></clipPath><clipPath id="clip-path-3" transform="translate(-164 -164)"><path class="cls-1" d="M259.24 296.43h41.32v41.32h-41.32z"/></clipPath><clipPath id="clip-path-4" transform="translate(-164 -164)"><path class="cls-1" d="M217.92 255.11h41.32v41.32h-41.32z"/></clipPath><style>.cls-1{fill:none}.cls-3{fill:#cf5651}.cls-4{fill:#f48375}.cls-8{fill:#d05651}.cls-9{fill:#f08369}.cls-12{fill:#583d72}.cls-13{fill:#9f5f80}</style></defs><circle id="Circle" cx="86" cy="86" r="86" style="fill:#eee"/><g id="Accents"><path class="cls-3" d="m229.7 319.33-12.3-.47a1.38 1.38 0 0 1-.31-2.74 1.19 1.19 0 0 1 .42 0l10.94.42.34-9.19a1.36 1.36 0 0 1 1.41-1.31l8 .31.37-9.44a1.35 1.35 0 0 1 1.45-1.26 1.36 1.36 0 0 1 1.27 1.36l-.42 10.81a1.31 1.31 0 0 1-.44.94 1.29 1.29 0 0 1-1 .35l-8-.31-.35 9.19a1.37 1.37 0 0 1-1.36 1.31Z" transform="translate(-164 -164)"/><path class="cls-4" d="M228 317.62h-.05l-12.3-.47a1.35 1.35 0 0 1-1.3-1.41 1.38 1.38 0 0 1 1.41-1.31l10.94.43.34-9.2a1.36 1.36 0 0 1 1.41-1.3l8 .31.36-9.45a1.38 1.38 0 0 1 1.62-1.08 1.35 1.35 0 0 1 1.1 1.19l-.42 10.8a1.36 1.36 0 0 1-1.41 1.31l-8-.31-.34 9.2a1.39 1.39 0 0 1-1.36 1.29Z" transform="translate(-164 -164)"/><path class="cls-3" d="M309.84 257.18v-.05l3.69-9.35a1.11 1.11 0 0 1 2.07.82l-3.29 8.32 7 2.76a1.12 1.12 0 0 1 .63 1.44l-2.41 6.09 7.17 2.84a1.11 1.11 0 0 1-.81 2.07l-8.22-3.25a1.12 1.12 0 0 1-.61-.6 1 1 0 0 1 0-.85l2.41-6.09-7-2.75a1.12 1.12 0 0 1-.64-1.41Z" transform="translate(-164 -164)"/><path class="cls-4" d="m309.46 254.93 3.7-9.35a1.13 1.13 0 0 1 1.45-.63 1.14 1.14 0 0 1 .62 1.45l-3.29 8.32 7 2.75a1.13 1.13 0 0 1 .63 1.45l-2.43 6.08 7.18 2.84a1.11 1.11 0 1 1-.71 2.11h-.1l-8.22-3.25a1.14 1.14 0 0 1-.61-.59 1 1 0 0 1 0-.85l2.41-6.09-7-2.76a1.12 1.12 0 0 1-.63-1.48Z" transform="translate(-164 -164)"/><path class="cls-3" d="M202.89 307.66a16.66 16.66 0 0 1-4-33.08l.46 3.84a12.8 12.8 0 0 0 3.08 25.4Z" transform="translate(-164 -164)"/><path class="cls-4" d="M201.09 305.51a16.68 16.68 0 0 1-4-33.11l.47 3.84a12.8 12.8 0 0 0 3.07 25.42Z" transform="translate(-164 -164)"/><path class="cls-3" d="M265 328.29a2.8 2.8 0 0 1-2-4.78l13.1-13.1a2.8 2.8 0 0 1 4 4L267 327.47a2.76 2.76 0 0 1-2 .82Z" transform="translate(-164 -164)"/><path class="cls-1" d="m99.13 158.7 13.09-13.08"/><path class="cls-4" d="M263.13 325.5a2.8 2.8 0 0 1-2-4.78l13.1-13.1a2.8 2.8 0 0 1 4 4l-13.1 13.1a2.72 2.72 0 0 1-2 .78Zm38.77-26.38a5.35 5.35 0 1 1 1.87-.35 5.44 5.44 0 0 1-1.87.35Zm0-8.4a3.05 3.05 0 1 0 3.06 3 3 3 0 0 0-.19-1.07 3 3 0 0 0-2.88-2Zm5.16-7.72a2.87 2.87 0 0 1-2.86-2.87 2.9 2.9 0 0 1 .26-1.19 2.82 2.82 0 0 1 1.6-1.49 2.88 2.88 0 0 1 3.69 1.68 2.87 2.87 0 0 1-1.69 3.69 2.8 2.8 0 0 1-1 .18Zm0-4.2a1.34 1.34 0 0 0-1.33 1.33 1.5 1.5 0 0 0 .08.47 1.34 1.34 0 0 0 2.55-.83.36.36 0 0 1 0-.11 1.35 1.35 0 0 0-1.26-.86Zm23.21-41.9a5.31 5.31 0 1 1 .11-1.89 5.23 5.23 0 0 1-.11 1.89Zm-8.17-1.9a3.05 3.05 0 1 0 3.67-2.28 3 3 0 0 0-1.08 0 3.06 3.06 0 0 0-2.59 2.28Zm-8.51-6.88a2.87 2.87 0 0 1-5.63-.3 2.86 2.86 0 0 1 2.48-3.2 2.86 2.86 0 0 1 3.2 2.48 2.92 2.92 0 0 1-.05 1.02Zm-4.09-1a1.55 1.55 0 0 0 0 .48 1.34 1.34 0 0 0 2.65-.34 1.34 1.34 0 0 0-1.49-1.16 1.34 1.34 0 0 0-1.14 1Z" transform="translate(-164 -164)"/></g><g id="Pattern"><path style="fill:#b34343" d="m63.84 111.23 57.17 28.95 15.55-50.56-72.72 21.61z"/><g style="clip-path:url(#clip-path)"><g style="clip-path:url(#clip-path-2)"><path class="cls-8" d="M285 296.31a1.17 1.17 0 0 1 1.18 1.16 1.18 1.18 0 0 1-.33.82l-5.4 5.52a1.17 1.17 0 0 1-1.74-1.57l.07-.07 5.4-5.51a1.16 1.16 0 0 1 .82-.35Z" transform="translate(-164 -164)"/><path class="cls-9" d="M263.31 298a1.15 1.15 0 0 1 .31-1.62 1.11 1.11 0 0 1 .87-.18l7.57 1.42a1.17 1.17 0 0 1-.43 2.29l-7.58-1.42a1.16 1.16 0 0 1-.74-.49Z" transform="translate(-164 -164)"/><path class="cls-8" d="M262.06 274a1.17 1.17 0 0 1 2.07.52l1.17 7.63a1.17 1.17 0 0 1-2.31.34l-1.15-7.62a1.13 1.13 0 0 1 .22-.87Z" transform="translate(-164 -164)"/><path class="cls-9" d="M263.44 274a1.13 1.13 0 0 1 .76-.46 1.17 1.17 0 0 1 1.34 1l1.16 7.63a1.17 1.17 0 0 1-1 1.29 1.19 1.19 0 0 1-1.28-.94l-1.16-7.63a1.15 1.15 0 0 1 .18-.89Z" transform="translate(-164 -164)"/><path class="cls-8" d="M279.75 276.62a1.16 1.16 0 0 1-.69 1.5 1.13 1.13 0 0 1-.9 0l-7-3.24a1.17 1.17 0 0 1 1-2.12l7 3.24a1.2 1.2 0 0 1 .59.62Z" transform="translate(-164 -164)"/><path class="cls-9" d="M278.93 277.74a1.17 1.17 0 0 1-.7 1.5 1.15 1.15 0 0 1-.89 0l-7-3.24a1.15 1.15 0 0 1-.61-1.53 1.17 1.17 0 0 1 1.54-.61h.05l7 3.24a1.2 1.2 0 0 1 .61.64Z" transform="translate(-164 -164)"/><path class="cls-8" d="M273.71 261.85a1.16 1.16 0 0 1 .75 1.47 1.18 1.18 0 0 1-.58.68l-6.88 3.52a1.17 1.17 0 0 1-1.07-2.06l6.86-3.53a1.22 1.22 0 0 1 .92-.08Z" transform="translate(-164 -164)"/><path class="cls-9" d="M274.08 263.19a1.14 1.14 0 0 1 .69.58 1.16 1.16 0 0 1-.5 1.57l-6.86 3.52a1.16 1.16 0 0 1-1.07-2.06l6.86-3.53a1.17 1.17 0 0 1 .88-.08Z" transform="translate(-164 -164)"/><path class="cls-8" d="M283.56 268.77a1.17 1.17 0 0 1 2 .77l.22 7.71a1.17 1.17 0 0 1-2.33.06l-.23-7.71a1.2 1.2 0 0 1 .34-.83Z" transform="translate(-164 -164)"/><path class="cls-9" d="M284.94 269a1.17 1.17 0 0 1 1.65-.05 1.19 1.19 0 0 1 .36.81l.22 7.71a1.17 1.17 0 1 1-2.33.18v-.11l-.22-7.71a1.11 1.11 0 0 1 .32-.83Z" transform="translate(-164 -164)"/><path class="cls-8" d="M285 255a1.17 1.17 0 0 1 1.18 1.16 1.18 1.18 0 0 1-.33.82l-5.4 5.52a1.17 1.17 0 0 1-1.74-1.57l.07-.07 5.4-5.51a1.16 1.16 0 0 1 .82-.35Z" transform="translate(-164 -164)"/><path class="cls-9" d="M285.8 256.14a1.18 1.18 0 0 1 1.2 1.16 1.21 1.21 0 0 1-.33.83l-5.4 5.51a1.17 1.17 0 1 1-1.74-1.56l.07-.07 5.4-5.52a1.14 1.14 0 0 1 .8-.35Z" transform="translate(-164 -164)"/><path class="cls-8" d="M262.78 257.93a1.17 1.17 0 0 1 1.18-1.81l7.59 1.42a1.17 1.17 0 0 1-.44 2.3l-7.58-1.42a1.23 1.23 0 0 1-.75-.49Z" transform="translate(-164 -164)"/><path class="cls-9" d="M263.31 256.63a1.17 1.17 0 0 1 .31-1.62 1.14 1.14 0 0 1 .86-.18l7.58 1.42a1.17 1.17 0 0 1-.43 2.29l-7.58-1.42a1.12 1.12 0 0 1-.74-.49Z" transform="translate(-164 -164)"/><path class="cls-8" d="M289.2 265.23a1.17 1.17 0 0 1 1.2-1.13 1.15 1.15 0 0 1 .82.38l5.26 5.64a1.17 1.17 0 1 1-1.72 1.59l-5.26-5.64a1.22 1.22 0 0 1-.3-.84Z" transform="translate(-164 -164)"/><path class="cls-9" d="M290.39 264.5a1.16 1.16 0 0 1 1.21-1.12 1.14 1.14 0 0 1 .81.37l5.26 5.64A1.17 1.17 0 0 1 296 271l-5.26-5.65a1.13 1.13 0 0 1-.35-.85Z" transform="translate(-164 -164)"/><path class="cls-8" d="M292.86 260.39a1.17 1.17 0 0 1 .43-2.12l7.58-1.45a1.17 1.17 0 1 1 .49 2.29h-.05l-7.58 1.44a1.18 1.18 0 0 1-.87-.16Z" transform="translate(-164 -164)"/><path class="cls-9" d="M292.88 259a1.17 1.17 0 0 1-.31-1.62 1.19 1.19 0 0 1 .75-.49l7.59-1.44a1.17 1.17 0 0 1 .56 2.27h-.13l-7.58 1.44a1.14 1.14 0 0 1-.88-.16Z" transform="translate(-164 -164)"/><path class="cls-8" d="M277.38 284.68a1.17 1.17 0 0 1 1.22-1.12 1.14 1.14 0 0 1 .8.37l5.26 5.64a1.17 1.17 0 1 1-1.72 1.59l-5.26-5.64a1.22 1.22 0 0 1-.3-.84Z" transform="translate(-164 -164)"/><path class="cls-9" d="M278.57 284a1.22 1.22 0 0 1 .37-.82 1.17 1.17 0 0 1 1.65.06l5.26 5.65a1.17 1.17 0 1 1-1.73 1.59l-5.24-5.63a1.17 1.17 0 0 1-.31-.85Z" transform="translate(-164 -164)"/><path class="cls-8" d="M271.56 284.25a1.16 1.16 0 0 1 1.52.63 1.15 1.15 0 0 1 0 .89l-2.94 7.13a1.17 1.17 0 0 1-2.2-.81.59.59 0 0 0 0-.08l2.95-7.13a1.15 1.15 0 0 1 .67-.63Z" transform="translate(-164 -164)"/><path class="cls-9" d="M272.71 285a1.15 1.15 0 0 1 .89 0 1.17 1.17 0 0 1 .64 1.52l-2.95 7.13a1.17 1.17 0 0 1-2.2-.81v-.08l2.95-7.13a1.18 1.18 0 0 1 .67-.63Z" transform="translate(-164 -164)"/><path class="cls-8" d="M290.71 276.42a1.18 1.18 0 0 1 1.63-.27 1.21 1.21 0 0 1 .48.76l1.27 7.61a1.17 1.17 0 1 1-2.3.38l-1.28-7.61a1.18 1.18 0 0 1 .2-.87Z" transform="translate(-164 -164)"/><path class="cls-9" d="M292.11 276.47a1.18 1.18 0 0 1 1.63-.27 1.16 1.16 0 0 1 .47.76l1.27 7.6a1.17 1.17 0 0 1-2.3.39l-1.28-7.61a1.14 1.14 0 0 1 .21-.87Z" transform="translate(-164 -164)"/><path class="cls-8" d="M251.54 260.39a1.17 1.17 0 0 1 .43-2.12l7.58-1.45a1.18 1.18 0 0 1 .44 2.31l-7.59 1.44a1.17 1.17 0 0 1-.86-.18Z" transform="translate(-164 -164)"/><path class="cls-9" d="M251.56 259a1.17 1.17 0 0 1-.31-1.62 1.19 1.19 0 0 1 .75-.49l7.59-1.44a1.17 1.17 0 0 1 .56 2.27h-.13l-7.58 1.44a1.14 1.14 0 0 1-.88-.16Z" transform="translate(-164 -164)"/></g><g style="clip-path:url(#clip-path-3)"><path class="cls-8" d="M262.06 315.27a1.18 1.18 0 0 1 1.64-.25 1.2 1.2 0 0 1 .46.76l1.15 7.64a1.17 1.17 0 0 1-2.31.34l-1.16-7.62a1.13 1.13 0 0 1 .22-.87Z" transform="translate(-164 -164)"/><path class="cls-9" d="M263.44 315.34a1.13 1.13 0 0 1 .76-.46 1.17 1.17 0 0 1 1.34 1l1.16 7.63a1.17 1.17 0 0 1-1 1.29 1.19 1.19 0 0 1-1.28-.94l-1.16-7.63a1.15 1.15 0 0 1 .18-.89Z" transform="translate(-164 -164)"/><path class="cls-8" d="M279.75 317.94a1.16 1.16 0 0 1-.69 1.5 1.13 1.13 0 0 1-.9 0l-7-3.22a1.17 1.17 0 0 1 1-2.12l7 3.24a1.16 1.16 0 0 1 .59.6Z" transform="translate(-164 -164)"/><path class="cls-9" d="M278.93 319.06a1.17 1.17 0 0 1-.7 1.5 1.15 1.15 0 0 1-.89 0l-7-3.24a1.15 1.15 0 0 1-.61-1.53 1.17 1.17 0 0 1 1.54-.61h.05l7 3.24a1.2 1.2 0 0 1 .61.64Z" transform="translate(-164 -164)"/><path class="cls-8" d="M273.71 303.17a1.16 1.16 0 0 1 .75 1.47 1.18 1.18 0 0 1-.58.68l-6.88 3.52a1.17 1.17 0 0 1-1.07-2.07l6.86-3.52a1.22 1.22 0 0 1 .92-.08Z" transform="translate(-164 -164)"/><path class="cls-9" d="M274.08 304.51a1.14 1.14 0 0 1 .69.58 1.16 1.16 0 0 1-.5 1.57l-6.87 3.52a1.17 1.17 0 1 1-1.26-2l.19-.1 6.86-3.52a1.11 1.11 0 0 1 .89-.05Z" transform="translate(-164 -164)"/><path class="cls-8" d="M283.56 310.09a1.17 1.17 0 0 1 2 .76l.22 7.71a1.17 1.17 0 0 1-2.33.06l-.23-7.71a1.2 1.2 0 0 1 .34-.82Z" transform="translate(-164 -164)"/><path class="cls-9" d="M284.94 310.32a1.17 1.17 0 0 1 1.65-.05 1.21 1.21 0 0 1 .36.82l.22 7.71a1.17 1.17 0 1 1-2.33.17v-.1l-.22-7.72a1.11 1.11 0 0 1 .32-.83Z" transform="translate(-164 -164)"/><path class="cls-8" d="M285 296.31a1.17 1.17 0 0 1 1.18 1.16 1.18 1.18 0 0 1-.33.82l-5.4 5.52a1.17 1.17 0 0 1-1.74-1.57l.07-.07 5.4-5.51a1.16 1.16 0 0 1 .82-.35Z" transform="translate(-164 -164)"/><path class="cls-9" d="M285.8 297.46a1.18 1.18 0 0 1 1.18 1.16 1.21 1.21 0 0 1-.33.83l-5.4 5.51a1.17 1.17 0 1 1-1.74-1.56l.07-.07 5.4-5.52a1.2 1.2 0 0 1 .82-.35Z" transform="translate(-164 -164)"/><path class="cls-8" d="M262.78 299.24a1.17 1.17 0 0 1 .3-1.62 1.2 1.2 0 0 1 .88-.19l7.59 1.43a1.17 1.17 0 0 1-.44 2.29l-7.58-1.42a1.19 1.19 0 0 1-.75-.49Z" transform="translate(-164 -164)"/><path class="cls-9" d="M263.31 298a1.15 1.15 0 0 1 .31-1.62 1.11 1.11 0 0 1 .87-.18l7.57 1.42a1.17 1.17 0 0 1-.43 2.29l-7.58-1.42a1.16 1.16 0 0 1-.74-.49Z" transform="translate(-164 -164)"/><path class="cls-8" d="M289.2 306.55a1.17 1.17 0 0 1 1.21-1.13 1.15 1.15 0 0 1 .81.38l5.26 5.64a1.17 1.17 0 1 1-1.72 1.59l-5.26-5.64a1.19 1.19 0 0 1-.3-.84Z" transform="translate(-164 -164)"/><path class="cls-9" d="M290.39 305.84a1.17 1.17 0 0 1 1.21-1.13 1.18 1.18 0 0 1 .81.37l5.26 5.65a1.17 1.17 0 0 1-.07 1.66 1.16 1.16 0 0 1-1.65-.07l-5.26-5.65a1.1 1.1 0 0 1-.3-.83Z" transform="translate(-164 -164)"/><path class="cls-8" d="M292.86 301.7a1.16 1.16 0 0 1-.3-1.62 1.15 1.15 0 0 1 .74-.49l7.58-1.44a1.17 1.17 0 0 1 .44 2.29l-7.58 1.44a1.14 1.14 0 0 1-.88-.18Z" transform="translate(-164 -164)"/><path class="cls-9" d="M292.88 300.32a1.16 1.16 0 0 1-.3-1.62 1.15 1.15 0 0 1 .74-.49l7.59-1.44a1.17 1.17 0 1 1 .43 2.29l-7.58 1.45a1.15 1.15 0 0 1-.88-.19Z" transform="translate(-164 -164)"/><path class="cls-8" d="M277.38 326a1.17 1.17 0 0 1 1.22-1.12 1.14 1.14 0 0 1 .8.37l5.26 5.64a1.17 1.17 0 1 1-1.72 1.59l-5.26-5.64a1.22 1.22 0 0 1-.3-.84Z" transform="translate(-164 -164)"/><path class="cls-9" d="M278.57 325.28a1.18 1.18 0 0 1 2-.78l5.25 5.66a1.17 1.17 0 0 1-1.73 1.59l-5.24-5.65a1.15 1.15 0 0 1-.28-.82Z" transform="translate(-164 -164)"/><path class="cls-8" d="M271.56 325.57a1.16 1.16 0 0 1 1.52.63 1.15 1.15 0 0 1 0 .89l-2.94 7.13a1.17 1.17 0 0 1-2.2-.81.59.59 0 0 0 0-.08l2.95-7.13a1.15 1.15 0 0 1 .67-.63Z" transform="translate(-164 -164)"/><path class="cls-9" d="M272.71 326.35a1.15 1.15 0 0 1 .89 0 1.17 1.17 0 0 1 .64 1.52l-2.95 7.13a1.17 1.17 0 0 1-2.16-.9l2.95-7.13a1.19 1.19 0 0 1 .63-.62Z" transform="translate(-164 -164)"/><path class="cls-8" d="M290.71 317.74a1.19 1.19 0 0 1 .76-.47 1.15 1.15 0 0 1 1.34 1l1.27 7.6a1.17 1.17 0 1 1-2.3.38l-1.28-7.6a1.16 1.16 0 0 1 .21-.91Z" transform="translate(-164 -164)"/><path class="cls-9" d="M292.11 317.79a1.17 1.17 0 0 1 2.1.49l1.27 7.6a1.17 1.17 0 0 1-2.3.39l-1.28-7.61a1.14 1.14 0 0 1 .21-.87Z" transform="translate(-164 -164)"/><path class="cls-8" d="M251.54 301.7a1.16 1.16 0 0 1-.3-1.62 1.15 1.15 0 0 1 .74-.49l7.58-1.44a1.17 1.17 0 0 1 .44 2.29l-7.58 1.44a1.14 1.14 0 0 1-.88-.18Z" transform="translate(-164 -164)"/><path class="cls-9" d="M251.56 300.32a1.16 1.16 0 0 1-.3-1.62 1.15 1.15 0 0 1 .74-.49l7.59-1.44a1.17 1.17 0 0 1 .43 2.29l-7.58 1.45a1.15 1.15 0 0 1-.88-.19Z" transform="translate(-164 -164)"/></g><g style="clip-path:url(#clip-path-4)"><path class="cls-8" d="M243.7 296.31a1.16 1.16 0 0 1 1.18 1.16 1.18 1.18 0 0 1-.33.82l-5.4 5.52a1.17 1.17 0 0 1-1.67-1.64l5.4-5.51a1.16 1.16 0 0 1 .82-.35Z" transform="translate(-164 -164)"/><path class="cls-9" d="M222 298a1.16 1.16 0 0 1 .31-1.62 1.11 1.11 0 0 1 .87-.18l7.58 1.42a1.17 1.17 0 1 1-.36 2.31h-.07l-7.58-1.42a1.14 1.14 0 0 1-.75-.51Z" transform="translate(-164 -164)"/><path class="cls-8" d="M220.73 274a1.17 1.17 0 0 1 1.63-.25 1.15 1.15 0 0 1 .46.77l1.17 7.62a1.17 1.17 0 0 1-1 1.29 1.18 1.18 0 0 1-1.27-.94l-1.16-7.62a1.13 1.13 0 0 1 .17-.87Z" transform="translate(-164 -164)"/><path class="cls-9" d="M222.12 274a1.16 1.16 0 0 1 2.09.51l1.17 7.63a1.17 1.17 0 0 1-2.31.35l-1.16-7.63a1.15 1.15 0 0 1 .21-.86Z" transform="translate(-164 -164)"/><path class="cls-8" d="M238.43 276.62a1.16 1.16 0 0 1-.69 1.5 1.13 1.13 0 0 1-.9 0l-7-3.24a1.17 1.17 0 0 1 1-2.12l7 3.24a1.21 1.21 0 0 1 .59.62Z" transform="translate(-164 -164)"/><path class="cls-9" d="M237.59 277.74a1.13 1.13 0 0 1 0 .9 1.16 1.16 0 0 1-1.54.57L229 276a1.17 1.17 0 0 1 .94-2.14l7 3.24a1.15 1.15 0 0 1 .65.64Z" transform="translate(-164 -164)"/><path class="cls-8" d="M232.39 261.85a1.16 1.16 0 0 1 .75 1.47 1.15 1.15 0 0 1-.58.68l-6.86 3.52a1.17 1.17 0 0 1-1.07-2.06l6.86-3.53a1.22 1.22 0 0 1 .9-.08Z" transform="translate(-164 -164)"/><path class="cls-9" d="M232.77 263.19a1.16 1.16 0 0 1 .69.58 1.18 1.18 0 0 1-.51 1.57l-6.86 3.52a1.17 1.17 0 0 1-1.09-2.06l6.86-3.53a1.2 1.2 0 0 1 .91-.08Z" transform="translate(-164 -164)"/><path class="cls-8" d="M242.24 268.77a1.17 1.17 0 0 1 2 .76l.22 7.71a1.17 1.17 0 0 1-2.33.06l-.22-7.71a1.15 1.15 0 0 1 .33-.82Z" transform="translate(-164 -164)"/><path class="cls-9" d="M243.62 269a1.17 1.17 0 0 1 1.65-.05 1.19 1.19 0 0 1 .36.81l.22 7.71a1.17 1.17 0 1 1-2.33.18v-.11l-.22-7.71a1.11 1.11 0 0 1 .32-.83Z" transform="translate(-164 -164)"/><path class="cls-8" d="M243.7 255a1.16 1.16 0 0 1 1.18 1.16 1.18 1.18 0 0 1-.33.82l-5.4 5.52a1.17 1.17 0 0 1-1.67-1.64l5.4-5.51a1.16 1.16 0 0 1 .82-.35Z" transform="translate(-164 -164)"/><path class="cls-9" d="M244.49 256.14a1.17 1.17 0 0 1 1.17 1.16 1.12 1.12 0 0 1-.33.83l-5.4 5.51a1.16 1.16 0 1 1-1.73-1.56l.06-.07 5.4-5.52a1.21 1.21 0 0 1 .83-.35Z" transform="translate(-164 -164)"/><path class="cls-8" d="M221.46 257.93a1.17 1.17 0 0 1 1.18-1.81l7.59 1.42a1.17 1.17 0 0 1-.43 2.3l-7.59-1.42a1.23 1.23 0 0 1-.75-.49Z" transform="translate(-164 -164)"/><path class="cls-9" d="M222 256.63a1.17 1.17 0 0 1 1.18-1.8l7.58 1.42a1.17 1.17 0 1 1-.36 2.31h-.07l-7.58-1.42a1.14 1.14 0 0 1-.75-.51Z" transform="translate(-164 -164)"/><path class="cls-8" d="M247.88 265.23a1.18 1.18 0 0 1 2-.76l5.27 5.64a1.17 1.17 0 1 1-1.72 1.59l-5.26-5.64a1.19 1.19 0 0 1-.29-.83Z" transform="translate(-164 -164)"/><path class="cls-9" d="M249.07 264.5a1.16 1.16 0 0 1 1.21-1.12 1.14 1.14 0 0 1 .81.37l5.26 5.64a1.17 1.17 0 0 1-1.72 1.6l-5.26-5.65a1.13 1.13 0 0 1-.3-.84Z" transform="translate(-164 -164)"/><path class="cls-8" d="M251.54 260.39a1.17 1.17 0 0 1 .43-2.12l7.58-1.45a1.18 1.18 0 0 1 .44 2.31l-7.59 1.44a1.17 1.17 0 0 1-.86-.18Z" transform="translate(-164 -164)"/><path class="cls-9" d="M251.56 259a1.17 1.17 0 0 1-.31-1.62 1.19 1.19 0 0 1 .75-.49l7.59-1.44a1.17 1.17 0 0 1 .56 2.27h-.13l-7.58 1.44a1.14 1.14 0 0 1-.88-.16Z" transform="translate(-164 -164)"/><path class="cls-8" d="M236.06 284.68a1.19 1.19 0 0 1 1.21-1.13 1.21 1.21 0 0 1 .82.38l5.25 5.64a1.17 1.17 0 1 1-1.72 1.59l-5.26-5.64a1.22 1.22 0 0 1-.3-.84Z" transform="translate(-164 -164)"/><path class="cls-9" d="M237.25 284a1.16 1.16 0 0 1 1.2-1.13 1.18 1.18 0 0 1 .82.37l5.25 5.65a1.17 1.17 0 1 1-1.62 1.68l-.08-.09-5.26-5.63a1.17 1.17 0 0 1-.31-.85Z" transform="translate(-164 -164)"/><path class="cls-8" d="M230.24 284.25a1.16 1.16 0 0 1 1.52.63 1.15 1.15 0 0 1 0 .89l-2.94 7.13a1.17 1.17 0 0 1-2.2-.81.59.59 0 0 0 0-.08l3-7.13a1.15 1.15 0 0 1 .62-.63Z" transform="translate(-164 -164)"/><path class="cls-9" d="M231.39 285a1.15 1.15 0 0 1 .89 0 1.16 1.16 0 0 1 .64 1.52l-2.92 7.16a1.15 1.15 0 0 1-1.5.69 1.17 1.17 0 0 1-.69-1.5.3.3 0 0 1 0-.08l2.95-7.13a1.15 1.15 0 0 1 .63-.66Z" transform="translate(-164 -164)"/><path class="cls-8" d="M249.39 276.42a1.18 1.18 0 0 1 1.63-.27 1.21 1.21 0 0 1 .48.76l1.27 7.61a1.17 1.17 0 1 1-2.3.38l-1.28-7.61a1.23 1.23 0 0 1 .2-.87Z" transform="translate(-164 -164)"/><path class="cls-9" d="M250.79 276.47a1.18 1.18 0 0 1 1.63-.27 1.16 1.16 0 0 1 .47.76l1.27 7.6a1.17 1.17 0 0 1-2.3.39l-1.27-7.61a1.09 1.09 0 0 1 .2-.87Z" transform="translate(-164 -164)"/><path class="cls-8" d="M210.22 260.39a1.13 1.13 0 0 1-.48-.75 1.16 1.16 0 0 1 .91-1.37l7.59-1.45a1.17 1.17 0 0 1 .43 2.3l-7.58 1.44a1.19 1.19 0 0 1-.87-.17Z" transform="translate(-164 -164)"/><path class="cls-9" d="M210.24 259a1.17 1.17 0 0 1-.31-1.62 1.19 1.19 0 0 1 .75-.49l7.59-1.44a1.17 1.17 0 0 1 .56 2.27h-.13l-7.58 1.44a1.14 1.14 0 0 1-.88-.16Z" transform="translate(-164 -164)"/></g></g><path class="cls-4" d="m284.32 300.15-59.68-30.22 75.92-22.57Zm-55.57-29.85L283.4 298l14.85-48.31Z" transform="translate(-164 -164)"/></g><g id="Name"><g id="Name_shadows" data-name="Name shadows"><path class="cls-12" d="M228.65 207.76c-.73 1.38-1.42 2.9-2.33 4.28a5.64 5.64 0 0 1-2.07 1.87c-2.47 1.27-5.28-.26-5.92-3.1a11.44 11.44 0 0 1 .12-5.14 20.63 20.63 0 0 1 4.81-9.49c1.54-1.7 3.34-3.08 5.75-3.15a8.88 8.88 0 0 1 2.89.51 1.2 1.2 0 0 1 .77 1.51v.08c-.25.58-.81.79-1.61.49a3.53 3.53 0 0 0-3.69.92 16.68 16.68 0 0 0-4.8 7.33 27.67 27.67 0 0 0-1.11 4.39 4.69 4.69 0 0 0 .08 1.79c.21 1.06 1.06 1.4 1.84.67a11.42 11.42 0 0 0 1.91-2.36 34.35 34.35 0 0 0 3.64-9.31 1.58 1.58 0 0 1 2.18-1.25 1.6 1.6 0 0 1 1 2c-.31 2-.64 4-.85 6a6.5 6.5 0 0 0 .34 2.07c.13.55.54.65.94.29a6.31 6.31 0 0 0 1.22-1.31 28.21 28.21 0 0 0 3.61-8.22 17.41 17.41 0 0 1 4-8.07 5.44 5.44 0 0 1 4.48-1.84 4.26 4.26 0 0 1 3.66 5.29 7 7 0 0 1-.67 1.87 1.49 1.49 0 0 1-2 .49 1.64 1.64 0 0 1-.84-2 7.12 7.12 0 0 0 .48-1.81 1.46 1.46 0 0 0-.5-1.17 1.43 1.43 0 0 0-1.3.13 7 7 0 0 0-1.63 1.77 17.52 17.52 0 0 0-2.75 8.17 8.05 8.05 0 0 0 .37 2.84 1.87 1.87 0 0 0 2.58 1.33 9.6 9.6 0 0 0 4.52-3.14 21 21 0 0 0 4.9-8.71 14.27 14.27 0 0 1 4.83-7.81 13.68 13.68 0 0 1 2.55-1.64 3.33 3.33 0 0 1 2.93.39 2.93 2.93 0 0 1 1 .82 1.46 1.46 0 0 0 1.55.66c1.18-.21 2.36-.41 3.52-.69a1.2 1.2 0 0 0 .72-.69c.71-2.76 1.38-5.52 2-8.31a15 15 0 0 0 .17-2.41 1.65 1.65 0 0 1 1.57-1.73 1.63 1.63 0 0 1 1.68 1.75c.1 3-.76 5.89-1.49 8.78-.85 3.35-1.69 6.69-2.48 10.05a7.65 7.65 0 0 0-.07 2.34c.13 1.56 1.31 2.07 2.54 1.08a9.6 9.6 0 0 0 2.76-3.86 15.31 15.31 0 0 0 1.38-6.7c-.05-1.11-.3-2.07-1.53-2.44a3.36 3.36 0 0 1-1-.64 1.62 1.62 0 0 1 1.13-2.91 15.52 15.52 0 0 1 2.47.9 8.17 8.17 0 0 0 1.56.62 7.77 7.77 0 0 0 4.69-.46 8.77 8.77 0 0 0 1.73-1.17c.38-.32.73-.69 1.21-.3a1 1 0 0 1 .17 1.36.1.1 0 0 1 0 .05 7.21 7.21 0 0 1-1.56 1.51 12.23 12.23 0 0 1-5.77 2.07c0 1.13.08 2.25 0 3.35a18.11 18.11 0 0 1-3.23 9.22 6.88 6.88 0 0 1-4.39 3.07 4.58 4.58 0 0 1-5.15-3.25c-.64-2.23-.19-4.41.24-6.6.14-.69.35-1.38.52-2.11l-3.9 1.12c0 .23.06.51.08.79a17.09 17.09 0 0 1-3.37 12.1 6.62 6.62 0 0 1-3.13 2.28 4.76 4.76 0 0 1-6.43-3.49c0-.15-.07-.3-.14-.62-.39.66-.69 1.21-1 1.75a16.11 16.11 0 0 1-5.23 5.74c-2 1.21-4.17 1.77-6.27.29a14.73 14.73 0 0 1-2.12-2.32c-.24.7-.52 1.39-.83 2.07a15.68 15.68 0 0 1-1.47 2.41c-1.48 1.89-4.52 2.5-5.91-1-.29-.5-.43-1.06-.55-1.44Zm31-20.41a13.72 13.72 0 0 0-1.28 1.25 14.15 14.15 0 0 0-2.51 5.28 13.8 13.8 0 0 0-.64 5.88c.27 1.66 1.56 2.18 2.93 1.21a6.38 6.38 0 0 0 .82-.73 12.08 12.08 0 0 0 2.68-5 12.26 12.26 0 0 0 .69-5.56 1.3 1.3 0 0 0-.41-.75c-.66-.52-1.38-.93-2.28-1.58Zm-27.29 47.14c1.86-3.42 4.76-4.38 6.68-2 .68-.87 1.4-1.71 2.16-2.51a3.65 3.65 0 0 1 4.08-.78 3.32 3.32 0 0 1 2.07 3 7.51 7.51 0 0 1-.08 2.27c-.41 1.91-1 3.79-1.38 5.71a29 29 0 0 0-.52 3.32 1.15 1.15 0 0 0 .44.91 1 1 0 0 0 .88-.22 29.65 29.65 0 0 0 2.6-3.21c2.3-3.51 3.23-7.51 4.09-11.54a4.27 4.27 0 0 0 0-1 1.42 1.42 0 0 1 1.21-1.57 1.38 1.38 0 0 1 1.61 1.13 8.8 8.8 0 0 1-.13 2.56c-.57 2.74-1.25 5.45-1.82 8.19a5.45 5.45 0 0 0 .06 2.09c.17.9.89 1.19 1.55.57a13.81 13.81 0 0 0 2.17-2.65 28.51 28.51 0 0 0 3.64-9.31c.39-1.94 1-3.85 1.49-5.77.1-.39.18-.79.34-1.42l-2.1 1.07c-.17.09-.29.28-.45.31a10 10 0 0 1-1.09.08c0-.38-.05-1 .16-1.1a17.63 17.63 0 0 1 3.11-2 1.88 1.88 0 0 0 1.22-1.6c.15-1.15.34-2.28.48-3.42.12-.87.65-1.43 1.38-1.42a1.43 1.43 0 0 1 1.42 1.42v.06c0 .91-.13 1.82-.22 2.91.41-.38.73-.69 1-1a1.5 1.5 0 0 1 2.1-.28 1.57 1.57 0 0 1-.18 2.13 7 7 0 0 1-3.18 1.94 1 1 0 0 0-.59.5c-.93 3.62-1.89 7.24-2.71 10.88a37 37 0 0 0-.5 4.36 2.42 2.42 0 0 0 .05.93c.12.38.26.92.55 1s.79-.17 1.07-.42a15.83 15.83 0 0 0 3.1-4.58c1.77-3.31 2.47-6.94 3.23-10.54s1.27-6.94 1.88-10.42a1.37 1.37 0 0 1 1.51-1.27 1.28 1.28 0 0 1 1.3 1.52c-.26 2.1-.61 4.19-.95 6.28-.17 1.06-.42 2.1-.62 3.15 0 .25-.08.5-.11.75l.19.08a7 7 0 0 1 .52-.88 17.77 17.77 0 0 1 2.43-2.92 2.9 2.9 0 0 1 4.9 1.88 11.23 11.23 0 0 1-.13 3.88c-.42 2.13-1.09 4.21-1.63 6.31a4.25 4.25 0 0 0-.2 1.37c0 .4.2 1 .48 1.11a1.22 1.22 0 0 0 1.15-.31 28.72 28.72 0 0 0 2.62-3.76c.86-1.58 1.49-3.27 2.22-4.92 0-.1.06-.23.13-.29.35-.26.77-.75 1.07-.69.55.12.37.69.25 1.13a32.58 32.58 0 0 1-3.18 8.49 10.88 10.88 0 0 1-2.2 2.63 3.28 3.28 0 0 1-5.23-1.79 9.23 9.23 0 0 1 .28-4.72c.51-2.06 1.07-4.13 1.55-6.23.17-.72.45-1.65-.44-2s-1.31.45-1.76 1a19.74 19.74 0 0 0-3.45 6c-1.3 3.45-2.44 7-3.61 10.44-.24.69-.41 1.38-1.3 1.47a1.58 1.58 0 0 1-1.72-1.18c-1.12 1.18-2.05 2.62-3.93 2.35s-2.45-1.75-2.9-3.39c-.55 1.06-1 2.07-1.58 3a9.54 9.54 0 0 1-1.67 2.07 3.39 3.39 0 0 1-5.33-1c-.15-.29-.29-.6-.42-.87-.75 1.23-1.43 2.49-2.26 3.65a3.9 3.9 0 0 1-3.9 1.85 3.51 3.51 0 0 1-2.9-3.45 15.71 15.71 0 0 1 .73-5.1c.42-1.68.84-3.4 1.23-5.11a4.39 4.39 0 0 0 .08-1.4c0-.34-.19-.87-.44-1a1.09 1.09 0 0 0-1 .35 15.51 15.51 0 0 0-1.79 2.83A48.38 48.38 0 0 0 238 246c-.16.9-.31 1.8-.47 2.71a1.45 1.45 0 0 1-1.69 1.32 1.34 1.34 0 0 1-1.14-1.74c.65-3.15 1.38-6.29 2-9.44a23.3 23.3 0 0 0 .43-3.72 1.72 1.72 0 0 0-.66-1.35 1.67 1.67 0 0 0-1.54.28 14 14 0 0 0-2.21 3.19 48.69 48.69 0 0 0-3.21 11.12c-.17.87-.33 1.75-.49 2.63a1.45 1.45 0 0 1-1.56 1.32 1.42 1.42 0 0 1-1.32-1.53.92.92 0 0 1 .05-.28c.58-3 1.18-6.06 1.78-9.08.5-2.52 1-5 1.51-7.54.19-.94.66-1.45 1.38-1.46s1.18.41 1.41 1.38c0 .19.03.38.09.68Zm-22.28 2.67a15.18 15.18 0 0 0-5.45 1.73c-5.8 3.18-7.89 8.35-7.65 14.69a2.43 2.43 0 0 1-.84 2.24 2.14 2.14 0 0 1-2.28.38 2 2 0 0 1-1.19-1.87 17.46 17.46 0 0 1 2.23-9.59 19.93 19.93 0 0 1 10.79-9.46 38.06 38.06 0 0 1 3.71-1c.37-.09.69-.1.85-.62a8.14 8.14 0 0 1 9.44-5.39c2.19.5 4.11 1.4 5.22 3.51a4.74 4.74 0 0 1-2 6.41 2.44 2.44 0 0 1-.28.14 4.26 4.26 0 0 1-3.36-.06 17.32 17.32 0 0 0-5.63-1.31.78.78 0 0 0-.54.21 9.79 9.79 0 0 0 1.65 1.52c1.31.74 2.71 1.34 4.08 2 5 2.44 6.92 8.46 6 12.94a13.05 13.05 0 0 1-10.5 10.63 12.75 12.75 0 0 1-9.31-23.1 9.64 9.64 0 0 1 2.23-1.1 2.16 2.16 0 0 1 2.69 1.44 1.92 1.92 0 0 1-1.27 2.4l-.22.06c-6.24 1.23-8.12 9.27-3.59 14.27A10 10 0 0 0 219 259a10.2 10.2 0 0 0 2.21-2.88 9.15 9.15 0 0 0-4-12.13c-.85-.46-1.76-.8-2.64-1.2-2.57-1.17-3.71-2.59-4.49-5.63Zm3.1-3.16a11.82 11.82 0 0 1 1.32.14c2.07.5 4.09 1 6.14 1.52a1.41 1.41 0 0 0 1.92-1.48 2.77 2.77 0 0 0-1.72-2.5 6.09 6.09 0 0 0-4.19-.53 4.51 4.51 0 0 0-3.46 2.85Zm2.28-41.94a11.45 11.45 0 0 0-5.51 2A11.92 11.92 0 0 0 207 210.7c.22.3.46.57.69.85a2 2 0 0 1 .05 3 2.4 2.4 0 0 1-3.28.15 12.82 12.82 0 0 1-2.23-3.37 15.8 15.8 0 0 1 1.35-14.94 14.63 14.63 0 0 1 9.36-7.12 23 23 0 0 1 5.05-.41 1.52 1.52 0 0 1 1.12 2.45c-2.48 2.72-3.23 6.11-3.79 9.55-.59 3.59-1 7.2-1.54 10.79a35.39 35.39 0 0 1-2.51 9.53 10.78 10.78 0 0 1-8 6.55 7.48 7.48 0 0 1-8.53-5c-1.67-4.48.27-8.73 3.92-11.43a1.62 1.62 0 0 1 2.25.34 1.65 1.65 0 0 1-.32 2.25 8.84 8.84 0 0 0-3 4.06c-.88 2.78.71 6 3.31 6.51a6 6 0 0 0 5-1.47c1.85-1.41 2.65-3.45 3.29-5.58 1.21-4 1.59-8.15 2.18-12.26a35.53 35.53 0 0 1 2.63-10.48c.42-.85.92-1.67 1.46-2.61Zm1.23 29.94c-.15-.17-.47-.35-.55-.61-.15-.5.18-.76.64-.9 1.76-.51 3.51-1 5.27-1.56l21.12-6.28 15.42-4.57 20.68-6.08c2.5-.74 5-1.51 7.52-2.22a1.49 1.49 0 0 1 1.21.22c.38.34.06.9-.56 1.09l-9 2.68-19.48 5.8-16.84 5-19.17 5.7-5.56 1.66c-.22 0-.39.07-.7.07Z" transform="translate(-164 -164)"/><path class="cls-12" d="M211.22 269.26a14.11 14.11 0 0 1-12.44-7.88c-.23-.45-.43-.93.13-1.23s.88.05 1.15.57a12.85 12.85 0 0 0 14.13 6.8 12.42 12.42 0 0 0 6.3-3.47l.22-.22c.35-.38.77-.65 1.21-.19s.16.86-.2 1.24a14.58 14.58 0 0 1-10.5 4.38ZM281.83 242a6.54 6.54 0 0 1-4.83-2.2.76.76 0 0 1 .08-1.22.73.73 0 0 1 1.16.07c.18.18.37.36.57.53a4.5 4.5 0 0 0 6.48-.25 14.5 14.5 0 0 0 3.2-5.07c.47-1.16.83-2.36 1.24-3.54a1.63 1.63 0 0 1 .13-.37c.29-.51.62-1.06 1.31-.84s.49.83.35 1.33c-1.07 3.49-2.33 6.89-5.07 9.49a7 7 0 0 1-4.62 2.07Zm-26-21.35a1.85 1.85 0 0 1 .14 3.7h-.16a1.8 1.8 0 0 1-1.82-1.79v-.07a1.84 1.84 0 0 1 1.83-1.84Zm36.4 6.14c0 .64-.62 1.35-1 1.26s-.49-.41-.73-.63a6.77 6.77 0 0 1 1.09-1c.06-.12.46.26.64.37Zm-93.12 31.48c-.46.35-.73.69-1 .69s-.69-.39-.69-.62a.94.94 0 0 1 .62-.69c.29-.04.6.35 1.07.62Zm91.94-58.83c-.46.34-.73.69-1 .69s-.49-.39-.73-.61c.22-.24.42-.62.69-.67s.55.29 1.04.59Z" transform="translate(-164 -164)"/></g><g id="Name-2"><path class="cls-13" d="M226.7 206.51c-.73 1.38-1.43 2.9-2.33 4.28a5.72 5.72 0 0 1-2.07 1.87 4.15 4.15 0 0 1-5.92-3.1 11.44 11.44 0 0 1 .12-5.14 20.57 20.57 0 0 1 4.81-9.5c1.55-1.7 3.35-3.08 5.76-3.16a8.94 8.94 0 0 1 2.89.52 1.19 1.19 0 0 1 .77 1.5v.09c-.25.58-.81.79-1.61.49a3.5 3.5 0 0 0-3.68.92 16.79 16.79 0 0 0-4.81 7.33 30 30 0 0 0-1.11 4.39 4.7 4.7 0 0 0 .08 1.79c.21 1.06 1.06 1.4 1.85.67a10.87 10.87 0 0 0 1.9-2.37 34.16 34.16 0 0 0 3.64-9.3 1.58 1.58 0 0 1 2.19-1.25 1.61 1.61 0 0 1 1 2c-.32 2-.65 4-.86 6a6.52 6.52 0 0 0 .35 2.07c.13.55.53.65.94.3a6.6 6.6 0 0 0 1.21-1.32 27.89 27.89 0 0 0 3.61-8.23 17.45 17.45 0 0 1 4-8.05 5.42 5.42 0 0 1 4.48-1.85 4.27 4.27 0 0 1 3.66 5.29 6.81 6.81 0 0 1-.71 1.9 1.49 1.49 0 0 1-2 .49 1.64 1.64 0 0 1-.84-2 7.12 7.12 0 0 0 .48-1.81 1.46 1.46 0 0 0-.5-1.17 1.4 1.4 0 0 0-1.29.13 7.18 7.18 0 0 0-1.63 1.76 17.69 17.69 0 0 0-2.76 8.17 8.29 8.29 0 0 0 .37 2.84 1.88 1.88 0 0 0 2.59 1.33 9.55 9.55 0 0 0 4.51-3.14 20.92 20.92 0 0 0 4.92-8.72 14.29 14.29 0 0 1 4.82-7.81 14.68 14.68 0 0 1 2.57-1.63 3.28 3.28 0 0 1 2.92.4 2.87 2.87 0 0 1 1 .82 1.45 1.45 0 0 0 1.54.65c1.18-.21 2.36-.41 3.52-.69a1.15 1.15 0 0 0 .72-.69c.69-2.76 1.38-5.51 2-8.3a15.07 15.07 0 0 0 .17-2.42 1.63 1.63 0 0 1 1.57-1.72 1.61 1.61 0 0 1 1.68 1.74c.1 3-.76 5.9-1.49 8.79-.85 3.34-1.69 6.68-2.47 10a7.65 7.65 0 0 0-.09 2.34c.15 1.56 1.32 2.07 2.55 1.09a9.6 9.6 0 0 0 2.76-3.86 15.49 15.49 0 0 0 1.37-6.71c0-1.1-.3-2.07-1.53-2.44a3.29 3.29 0 0 1-1-.63 1.63 1.63 0 0 1 1.12-2.95 16.49 16.49 0 0 1 2.46.91 9.3 9.3 0 0 0 1.57.62 7.85 7.85 0 0 0 4.69-.46 8.89 8.89 0 0 0 1.72-1.18c.39-.31.74-.69 1.22-.3a1 1 0 0 1 .17 1.37 7.75 7.75 0 0 1-1.57 1.51 12.41 12.41 0 0 1-5.76 2.07c0 1.12.07 2.24 0 3.35a18 18 0 0 1-3.24 9.21 6.82 6.82 0 0 1-4.39 3.07 4.56 4.56 0 0 1-5.15-3.25c-.64-2.23-.19-4.41.24-6.59.14-.69.35-1.38.52-2.11L263 188c0 .23.06.51.08.78.28 4.43-.57 8.55-3.37 12.1a6.64 6.64 0 0 1-3.13 2.29 4.75 4.75 0 0 1-6.42-3.49c0-.15-.08-.31-.15-.63-.39.66-.69 1.22-1 1.75a16.26 16.26 0 0 1-5.24 5.75c-2 1.2-4.16 1.76-6.27.29a14.32 14.32 0 0 1-2.11-2.33c-.24.6-.48 1.36-.84 2.07a14.73 14.73 0 0 1-1.46 2.41c-1.49 1.89-4.53 2.5-5.91-1-.18-.54-.36-1.1-.48-1.48Zm31-20.41a15.1 15.1 0 0 0-1.28 1.25 14.05 14.05 0 0 0-2.5 5.28 13.8 13.8 0 0 0-.64 5.88c.27 1.67 1.55 2.18 2.93 1.21a6.3 6.3 0 0 0 .79-.72 12.22 12.22 0 0 0 2.68-5 12.42 12.42 0 0 0 .69-5.56 1.26 1.26 0 0 0-.4-.75c-.66-.53-1.38-.98-2.27-1.59Zm-27.29 47.13c1.85-3.42 4.75-4.38 6.67-2a30.5 30.5 0 0 1 2.17-2.51 3.64 3.64 0 0 1 4.08-.77 3.33 3.33 0 0 1 2.07 3 8.15 8.15 0 0 1-.08 2.26c-.41 1.92-1 3.8-1.38 5.72a28.31 28.31 0 0 0-.52 3.32 1.12 1.12 0 0 0 .43.91 1 1 0 0 0 .88-.23 29.41 29.41 0 0 0 2.61-3.2c2.29-3.51 3.23-7.52 4.08-11.54a3.42 3.42 0 0 0 0-1 1.45 1.45 0 0 1 1.22-1.58 1.38 1.38 0 0 1 1.62 1.13 8.87 8.87 0 0 1-.13 2.57c-.57 2.73-1.26 5.44-1.82 8.18a5.49 5.49 0 0 0 .05 2.1c.17.9.89 1.19 1.55.56a12.78 12.78 0 0 0 2.17-2.64 28.53 28.53 0 0 0 3.65-9.31c.39-1.95 1-3.85 1.48-5.77.11-.4.19-.8.35-1.42l-2.11 1.07c-.16.08-.29.28-.45.31a9.81 9.81 0 0 1-1.09.07c0-.38 0-.94.17-1.1a17.72 17.72 0 0 1 3.1-1.94 1.85 1.85 0 0 0 1.22-1.61c.16-1.14.35-2.28.49-3.42a1.4 1.4 0 1 1 2.8 0v.06c0 .91-.13 1.82-.22 2.91.41-.39.73-.69 1-1a1.48 1.48 0 0 1 2.09-.27 1.55 1.55 0 0 1-.18 2.13 7.15 7.15 0 0 1-3.17 1.94 1 1 0 0 0-.59.5c-.94 3.62-1.89 7.24-2.71 10.88a34.88 34.88 0 0 0-.5 4.35 2.49 2.49 0 0 0 .05.94c.12.38.26.92.54 1s.8-.16 1.08-.42a15.9 15.9 0 0 0 3.1-4.58c1.76-3.3 2.46-6.94 3.23-10.54.73-3.44 1.26-6.94 1.88-10.41a1.38 1.38 0 0 1 1.5-1.28 1.28 1.28 0 0 1 1.3 1.53c-.26 2.1-.6 4.19-.94 6.27-.18 1.06-.42 2.11-.63 3.16-.05.25-.07.49-.11.74l.2.08a7.73 7.73 0 0 1 .51-.88 18.17 18.17 0 0 1 2.44-2.92 2.89 2.89 0 0 1 4.89 1.89 11.3 11.3 0 0 1-.16 3.89c-.42 2.12-1.08 4.2-1.62 6.3a4.06 4.06 0 0 0-.21 1.38c0 .4.2 1 .48 1.11a1.24 1.24 0 0 0 1.15-.31 28.3 28.3 0 0 0 2.65-3.79c.86-1.58 1.49-3.28 2.23-4.93 0-.09.05-.23.12-.28.35-.26.77-.75 1.07-.69.56.11.37.69.25 1.12a32.42 32.42 0 0 1-3.18 8.5 10.4 10.4 0 0 1-2.19 2.62 3.27 3.27 0 0 1-5.23-1.77 9.16 9.16 0 0 1 .28-4.73c.51-2.06 1.06-4.13 1.55-6.24.16-.71.44-1.64-.44-2s-1.32.46-1.77 1a19.94 19.94 0 0 0-3.45 6c-1.29 3.45-2.44 6.95-3.61 10.45-.24.69-.41 1.37-1.29 1.45a1.57 1.57 0 0 1-1.73-1.17c-1.12 1.18-2 2.62-3.93 2.35s-2.44-1.75-2.9-3.39c-.55 1.06-1 2.07-1.57 3a9.78 9.78 0 0 1-1.68 2 3.37 3.37 0 0 1-5.32-1c-.16-.29-.29-.59-.42-.87-.76 1.23-1.43 2.49-2.27 3.65a3.89 3.89 0 0 1-3.89 1.85 3.51 3.51 0 0 1-2.91-3.45 16.06 16.06 0 0 1 .73-5.1c.43-1.67.85-3.4 1.23-5.11a4.1 4.1 0 0 0 .08-1.4c0-.34-.18-.87-.43-1a1.1 1.1 0 0 0-1 .34 16.67 16.67 0 0 0-1.79 2.83 48.57 48.57 0 0 0-3.3 11.51c-.17.9-.32 1.8-.48 2.7a1.43 1.43 0 0 1-1.69 1.33 1.34 1.34 0 0 1-1.13-1.75c.64-3.15 1.36-6.28 2-9.44a22.08 22.08 0 0 0 .43-3.72 1.72 1.72 0 0 0-.65-1.34 1.67 1.67 0 0 0-1.55.28 14 14 0 0 0-2.21 3.18 48.92 48.92 0 0 0-3.21 11.13c-.17.87-.34 1.74-.49 2.62a1.43 1.43 0 0 1-1.56 1.32 1.42 1.42 0 0 1-1.32-1.52 1.47 1.47 0 0 1 .05-.29c.58-3 1.19-6.05 1.79-9.07.49-2.53 1-5 1.5-7.55.19-.94.66-1.44 1.36-1.45s1.19.4 1.42 1.37c.07.38.11.55.17.84Zm-22.29 2.69a15.12 15.12 0 0 0-5.44 1.72c-5.8 3.2-7.9 8.35-7.66 14.7a2.43 2.43 0 0 1-.84 2.24 2.16 2.16 0 0 1-2.28.37 1.94 1.94 0 0 1-1.18-1.88 17.22 17.22 0 0 1 2.28-9.57 19.87 19.87 0 0 1 10.73-9.5 72.4 72.4 0 0 1 3.72-1c.37-.09.69-.1.84-.62a8.14 8.14 0 0 1 9.44-5.39c2.19.5 4.12 1.4 5.22 3.51a4.74 4.74 0 0 1-2 6.42l-.27.13a4.29 4.29 0 0 1-3.37-.06 17.48 17.48 0 0 0-5.61-1.32.83.83 0 0 0-.54.21 9.79 9.79 0 0 0 1.65 1.52c1.31.75 2.71 1.34 4.07 2 5 2.45 6.93 8.46 6 12.95a13 13 0 0 1-10.51 10.63 12.75 12.75 0 0 1-9.23-22.98 9.55 9.55 0 0 1 2.24-1.11 2.18 2.18 0 0 1 2.69 1.44 1.92 1.92 0 0 1-1.25 2.41 1.14 1.14 0 0 1-.25.06c-6.24 1.2-8.12 9.2-3.57 14.2a10 10 0 0 0 14.06.75 10.1 10.1 0 0 0 2.22-2.89 9.14 9.14 0 0 0-4-12.12c-.85-.46-1.76-.8-2.64-1.2-2.59-1.16-3.74-2.54-4.52-5.62Zm3.1-3.17a11.23 11.23 0 0 1 1.3.14l6.15 1.52a1.42 1.42 0 0 0 1.92-1.48 2.78 2.78 0 0 0-1.72-2.5 6.12 6.12 0 0 0-4.2-.53 4.52 4.52 0 0 0-3.44 2.87Zm2.29-41.94a11.56 11.56 0 0 0-5.54 2 11.93 11.93 0 0 0-2.97 16.65c.22.29.47.56.69.85a2 2 0 0 1 .05 2.95 2.39 2.39 0 0 1-3.28.15 12.66 12.66 0 0 1-2.23-3.37 15.86 15.86 0 0 1 1.34-14.94A14.73 14.73 0 0 1 211 188a22.93 22.93 0 0 1 5-.41 1.52 1.52 0 0 1 1.13 2.45c-2.48 2.73-3.22 6.11-3.79 9.55-.59 3.59-1 7.2-1.54 10.8a35 35 0 0 1-2.51 9.52 10.78 10.78 0 0 1-8 6.55 7.48 7.48 0 0 1-8.53-5c-1.67-4.48.27-8.73 3.92-11.43a1.61 1.61 0 0 1 2.25.35 1.64 1.64 0 0 1-.32 2.24 8.84 8.84 0 0 0-3 4.06c-.88 2.78.71 6 3.31 6.51a6 6 0 0 0 5-1.47c1.86-1.41 2.66-3.45 3.3-5.58 1.21-4 1.59-8.15 2.17-12.26a35.86 35.86 0 0 1 2.65-10.45c.42-.87.96-1.66 1.47-2.62Zm1.23 29.98c-.16-.17-.48-.35-.56-.62-.15-.49.18-.76.65-.89l5.26-1.57 21.13-6.28 15.41-4.57 20.68-6.16c2.5-.74 5-1.51 7.52-2.22a1.48 1.48 0 0 1 1.17.23c.37.34.05.89-.57 1.08l-9 2.69-19.47 5.79-16.84 5-19.2 5.73-5.56 1.66c-.15.02-.3.04-.62.13Z" transform="translate(-164 -164)"/><path class="cls-13" d="M209.27 268a14.07 14.07 0 0 1-12.44-7.88c-.24-.45-.43-.92.12-1.22s.89 0 1.16.56a12.83 12.83 0 0 0 14.11 6.8 12.34 12.34 0 0 0 6.3-3.47l.22-.22c.35-.38.77-.64 1.2-.18s.17.86-.2 1.23a14.43 14.43 0 0 1-10.47 4.38Zm70.61-27.22a6.51 6.51 0 0 1-4.79-2.22.76.76 0 0 1 .07-1.23.73.73 0 0 1 1.16.07c.18.19.37.37.56.54a4.49 4.49 0 0 0 6.48-.26 14.37 14.37 0 0 0 3.2-5.06c.48-1.15.83-2.36 1.24-3.54a2.32 2.32 0 0 1 .13-.37c.29-.51.62-1.06 1.31-.84s.49.83.35 1.33c-1.07 3.49-2.33 6.89-5.07 9.49a7 7 0 0 1-4.64 2.09Zm-26-21.38a1.85 1.85 0 0 1 .13 3.7h-.16a1.81 1.81 0 0 1-1.82-1.8v-.06a1.84 1.84 0 0 1 1.84-1.84Zm36.39 6.13c0 .64-.62 1.35-1 1.26s-.49-.41-.73-.63a6.65 6.65 0 0 1 1.09-1c.07-.11.47.27.64.37ZM197.15 257c-.45.34-.72.69-1 .69s-.69-.4-.69-.62a.93.93 0 0 1 .62-.69c.29-.02.59.33 1.07.62Zm91.94-58.81c-.46.34-.73.69-1 .69s-.49-.39-.74-.61c.23-.24.42-.62.69-.67s.56.29 1.05.59Z" transform="translate(-164 -164)"/></g></g></svg>